<?xml version="1.0" encoding="utf-8"?>
<!-- Generator: Adobe Illustrator 16.0.0, SVG Export Plug-In . SVG Version: 6.00 Build 0)  -->
<!DOCTYPE svg PUBLIC "-//W3C//DTD SVG 1.1//EN" "http://www.w3.org/Graphics/SVG/1.1/DTD/svg11.dtd">
<svg version="1.1" id="Layer_1" xmlns="http://www.w3.org/2000/svg" xmlns:xlink="http://www.w3.org/1999/xlink" x="0px" y="0px"
	 width="170px" height="20px" viewBox="0 0 170 20" enable-background="new 0 0 170 20" xml:space="preserve">
<text transform="matrix(-4.371139e-08 -1 1 -4.371139e-08 176.3281 -14.1074)" fill="#FFFFFF" font-family="'DIN-BoldItalic'" font-size="10">&lt;&gt;</text>
<text transform="matrix(-4.371139e-08 -1 1 -4.371139e-08 194.125 -9.0918)" fill="#FFFFFF" font-family="'DIN-BoldItalic'" font-size="10">&lt;&gt;</text>
<text transform="matrix(-4.371139e-08 -1 1 -4.371139e-08 202.5312 -9.0918)" fill="#FFFFFF" font-family="'DIN-BoldItalic'" font-size="10">&lt;&gt;</text>
<g>
	<path fill="#FFFFFF" d="M158.092,9.71l1.846,4.473l1.981-3.761l2.151,0.424l-3.371,5.995l-1.795-0.372l-3.15-7.216L158.092,9.71z"
		/>
	<path fill="#FFFFFF" d="M160.988,1.072l3.134,7.216l-2.338-0.457l-1.846-4.473l-1.981,3.761l-2.151-0.44l3.388-5.979L160.988,1.072
		z"/>
</g>
</svg>
